0
SECTION
2
HEADER
9
$INSUNITS
70
4
9
$ACADVER
1
AC1014
9
$HANDSEED
5
FFFF
0
ENDSEC
0
SECTION
2
TABLES
0
TABLE
2
VPORT
5
8
100
AcDbSymbolTable
0
ENDTAB
0
TABLE
2
LTYPE
5
5
100
AcDbSymbolTable
0
LTYPE
5
14
100
AcDbSymbolTableRecord
100
AcDbLinetypeTableRecord
2
BYBLOCK
70
0
0
LTYPE
5
15
100
AcDbSymbolTableRecord
100
AcDbLinetypeTableRecord
2
BYLAYER
70
0
0
ENDTAB
0
TABLE
2
LAYER
5
2
100
AcDbSymbolTable
70
2
0
LAYER
5
50
100
AcDbSymbolTableRecord
100
AcDbLayerTableRecord
2
0
70
0
6
CONTINUOUS
0
ENDTAB
0
TABLE
2
STYLE
5
3
100
AcDbSymbolTable
70
1
0
STYLE
5
11
100
AcDbSymbolTableRecord
100
AcDbTextStyleTableRecord
2
STANDARD
70
0
0
ENDTAB
0
TABLE
2
VIEW
5
6
100
AcDbSymbolTable
70
0
0
ENDTAB
0
TABLE
2
UCS
5
7
100
AcDbSymbolTable
70
0
0
ENDTAB
0
TABLE
2
APPID
5
9
100
AcDbSymbolTable
70
2
0
APPID
5
12
100
AcDbSymbolTableRecord
100
AcDbRegAppTableRecord
2
ACAD
70
0
0
ENDTAB
0
TABLE
2
DIMSTYLE
5
A
100
AcDbSymbolTable
70
1
0
ENDTAB
0
TABLE
2
BLOCK_RECORD
5
1
100
AcDbSymbolTable
70
1
0
BLOCK_RECORD
5
1F
100
AcDbSymbolTableRecord
100
AcDbBlockTableRecord
2
*MODEL_SPACE
0
BLOCK_RECORD
5
1B
100
AcDbSymbolTableRecord
100
AcDbBlockTableRecord
2
*PAPER_SPACE
0
ENDTAB
0
ENDSEC
0
SECTION
2
BLOCKS
0
BLOCK
5
20
100
AcDbEntity
100
AcDbBlockBegin
2
*MODEL_SPACE
0
ENDBLK
5
21
100
AcDbEntity
100
AcDbBlockEnd
0
BLOCK
5
1C
100
AcDbEntity
100
AcDbBlockBegin
2
*PAPER_SPACE
0
ENDBLK
5
1D
100
AcDbEntity
100
AcDbBlockEnd
0
ENDSEC
0
SECTION
2
ENTITIES
0
LWPOLYLINE
5
100
100
AcDbEntity
8
0
100
AcDbPolyline
90
8
70
1
43
0.0
10
-33.361903492138666
20
-334.0624999999975
42
-0.29018975885112602
10
-19.735346621643203
20
-320.43594312950205
42
-0.48038446141526053
10
-17.29784662164321
20
-322.38750500400158
10
-17.297846621643217
20
-323.41404785418274
42
-0.34680204132103232
10
-18.831179954976534
20
-325.35884147362475
42
0.28209135748093972
10
-28.43900514801598
20
-334.9666666666642
42
-0.34680204132103348
10
-30.383798767457982
20
-336.49999999999756
10
-31.410341617639197
20
-336.4999999999975
42
-0.48038446141526669
0
LWPOLYLINE
5
101
100
AcDbEntity
8
0
100
AcDbPolyline
90
6
70
1
43
0.0
10
-19.297846621643213
20
-339.49999999999756
10
-24.089408597531694
20
-339.49999999999756
42
0.53667504192891724
10
-25.931977925506917
20
-342.27777777777533
42
0.1954185483107985
10
-20.07562439942101
20
-348.1341313038613
42
0.53667504192892101
10
-17.297846621643217
20
-346.29156197588605
10
-17.297846621643213
20
-341.49999999999756
42
0.41421356237309503
0
CIRCLE
5
102
100
AcDbEntity
8
0
100
AcDbCircle
10
-31.797846621643139
20
-353.9999999999975
30
0
40
1.7499999999999716
210
5.8729388269607359e-49
220
-8.6752287521762775e-82
230
1
0
LWPOLYLINE
5
103
100
AcDbEntity
8
0
100
AcDbPolyline
90
8
70
1
43
0.0
10
-19.735346621643181
20
-355.56405687049289
42
-0.29018975885112269
10
-33.361903492138715
20
-341.93749999999761
42
-0.48038446141526608
10
-31.410341617639197
20
-339.49999999999756
10
-30.383798767457982
20
-339.49999999999761
42
-0.34680204132103348
10
-28.439005148016005
20
-341.03333333333092
42
0.28209135748093517
10
-18.831179954976541
20
-350.64115852637036
42
-0.34680204132103265
10
-17.297846621643217
20
-352.58595214581237
10
-17.297846621643185
20
-353.61249499599353
42
-0.4803844614152612
0
LWPOLYLINE
5
104
100
AcDbEntity
8
0
100
AcDbPolyline
90
6
70
1
43
0.0
10
-24.089408597531694
20
-336.49999999999756
10
-19.29784662164321
20
-336.49999999999756
42
0.41421356237309503
10
-17.29784662164321
20
-334.49999999999756
10
-17.29784662164321
20
-329.70843802410906
42
0.53667504192892623
10
-20.075624399421006
20
-327.86586869613387
42
0.1954185483108016
10
-25.931977925506921
20
-333.72222222221978
42
0.53667504192891657
0
CIRCLE
5
105
100
AcDbEntity
8
0
100
AcDbCircle
10
-31.797846621643139
20
-321.9999999999975
30
0
40
1.7500000000000071
210
5.8729388269606189e-49
220
4.9303806576313238e-32
230
1
0
LWPOLYLINE
5
106
100
AcDbEntity
8
0
100
AcDbPolyline
90
8
70
1
43
0.0
10
-11.860346621643176
20
-320.43594312950182
42
-0.29018975885112425
10
1.7662102488523321
20
-334.0624999999975
42
-0.48038446141526586
10
-0.18535162564718891
20
-336.49999999999756
10
-1.2118944758284016
20
-336.4999999999975
42
-0.34680204132103348
10
-3.1566880952703769
20
-334.9666666666642
42
0.28209135748093705
10
-12.764513288309889
20
-325.35884147362475
42
-0.34680204132103182
10
-14.29784662164321
20
-323.41404785418274
10
-14.297846621643174
20
-322.38750500400153
42
-0.48038446141526164
0
LWPOLYLINE
5
107
100
AcDbEntity
8
0
100
AcDbPolyline
90
6
70
1
43
0.0
10
-14.297846621643215
20
-341.49999999999756
10
-14.297846621643217
20
-346.29156197588605
42
0.53667504192891646
10
-11.520068843865452
20
-348.1341313038613
42
0.1954185483107975
10
-5.6637153177794586
20
-342.27777777777533
42
0.53667504192891635
10
-7.5062846457546879
20
-339.49999999999756
10
-12.297846621643217
20
-339.49999999999756
42
0.41421356237309503
0
CIRCLE
5
108
100
AcDbEntity
8
0
100
AcDbCircle
10
0.20215337835685965
20
-353.99999999999778
30
0
40
1.7499999999999716
210
5.8729388269607359e-49
220
-8.6752287521762775e-82
230
1
0
LWPOLYLINE
5
109
100
AcDbEntity
8
0
100
AcDbPolyline
90
8
70
1
43
0.0
10
1.7662102488523179
20
-341.93749999999761
42
-0.29018975885112108
10
-11.860346621643224
20
-355.56405687049312
42
-0.48038446141526098
10
-14.29784662164322
20
-353.61249499599359
10
-14.29784662164321
20
-352.58595214581237
42
-0.34680204132103348
10
-12.764513288309885
20
-350.64115852637036
42
0.28209135748093261
10
-3.1566880952704053
20
-341.03333333333092
42
-0.34680204132103348
10
-1.2118944758284016
20
-339.49999999999756
10
-0.18535162564718899
20
-339.49999999999756
42
-0.4803844614152662
0
LWPOLYLINE
5
110
100
AcDbEntity
8
0
100
AcDbPolyline
90
6
70
1
43
0.0
10
-12.297846621643217
20
-336.49999999999756
10
-7.5062846457546897
20
-336.49999999999756
42
0.53667504192891702
10
-5.6637153177794648
20
-333.72222222221978
42
0.19541854831080094
10
-11.520068843865452
20
-327.86586869613382
42
0.5366750419289158
10
-14.297846621643211
20
-329.70843802410906
10
-14.297846621643213
20
-334.49999999999756
42
0.4142135623730947
0
CIRCLE
5
111
100
AcDbEntity
8
0
100
AcDbCircle
10
0.20215337835686603
20
-321.9999999999975
30
0
40
1.749999999999992
210
5.8729388269642302e-49
220
-8.6752287521814403e-82
230
1
0
CIRCLE
5
112
100
AcDbEntity
8
0
100
AcDbCircle
10
-106.79784662164315
20
-321.99999999999773
30
0
40
1.7500000000000071
210
-1.0996214285994333e-46
220
4.9303806576313238e-32
230
1
0
LWPOLYLINE
5
113
100
AcDbEntity
8
0
100
AcDbPolyline
90
6
70
1
43
0.0
10
-89.297846621643117
20
-341.49999999999773
10
-89.297846621643117
20
-346.29156197588628
42
0.5366750419289158
10
-86.520068843865374
20
-348.13413130386152
42
0.19541854831080313
10
-80.663715317779406
20
-342.27777777777555
42
0.53667504192891691
10
-82.506284645754633
20
-339.49999999999773
10
-87.297846621643131
20
-339.49999999999767
42
0.41421356237309503
0
LWPOLYLINE
5
114
100
AcDbEntity
8
0
100
AcDbPolyline
90
8
70
1
43
0.0
10
-73.233789751147668
20
-341.93749999999784
42
-0.2901897588511258
10
-86.860346621643117
20
-355.56405687049323
42
-0.48038446141526459
10
-89.297846621643117
20
-353.61249499599376
10
-89.297846621643117
20
-352.58595214581254
42
-0.34680204132103321
10
-87.7645132883098
20
-350.64115852637059
42
0.28209135748093961
10
-78.156688095270354
20
-341.03333333333114
42
-0.34680204132103321
10
-76.211894475828345
20
-339.49999999999773
10
-75.185351625647144
20
-339.49999999999773
42
-0.4803844614152652
0
LWPOLYLINE
5
115
100
AcDbEntity
8
0
100
AcDbPolyline
90
8
70
1
43
0.0
10
-108.36190349213867
20
-334.06249999999773
42
-0.29018975885112064
10
-94.735346621643146
20
-320.43594312950233
42
-0.48038446141526192
10
-92.297846621643146
20
-322.38750500400181
10
-92.297846621643146
20
-323.41404785418297
42
-0.34680204132103321
10
-93.831179954976477
20
-325.35884147362492
42
0.28209135748093211
10
-103.43900514801591
20
-334.96666666666442
42
-0.34680204132103376
10
-105.38379876745792
20
-336.49999999999778
10
-106.41034161763912
20
-336.49999999999778
42
-0.4803844614152652
0
LWPOLYLINE
5
116
100
AcDbEntity
8
0
100
AcDbPolyline
90
8
70
1
43
0.0
10
-94.735346621643203
20
-355.5640568704934
42
-0.29018975885112352
10
-108.36190349213864
20
-341.93749999999784
42
-0.48038446141526575
10
-106.41034161763912
20
-339.49999999999773
10
-105.38379876745792
20
-339.49999999999784
42
-0.34680204132103376
10
-103.43900514801592
20
-341.03333333333114
42
0.2820913574809365
10
-93.831179954976477
20
-350.64115852637059
42
-0.34680204132103321
10
-92.297846621643146
20
-352.58595214581254
10
-92.297846621643174
20
-353.61249499599376
42
-0.48038446141526431
0
CIRCLE
5
117
100
AcDbEntity
8
0
100
AcDbCircle
10
-74.797846621643146
20
-321.99999999999773
30
0
40
1.7499999999999893
210
-1.0996214285994298e-46
220
-4.9303806576313238e-32
230
1
0
LWPOLYLINE
5
118
100
AcDbEntity
8
0
100
AcDbPolyline
90
6
70
1
43
0.0
10
-99.089408597531616
20
-336.49999999999778
10
-94.297846621643146
20
-336.49999999999778
42
0.41421356237309503
10
-92.297846621643146
20
-334.49999999999784
10
-92.297846621643146
20
-329.70843802410923
42
0.53667504192892812
10
-95.075624399420946
20
-327.8658686961341
42
0.19541854831079516
10
-100.93197792550684
20
-333.72222222222001
42
0.53667504192891691
0
LWPOLYLINE
5
119
100
AcDbEntity
8
0
100
AcDbPolyline
90
6
70
1
43
0.0
10
-94.297846621643117
20
-339.49999999999773
10
-99.089408597531616
20
-339.49999999999773
42
0.5366750419289158
10
-100.93197792550686
20
-342.27777777777555
42
0.19541854831079991
10
-95.075624399420931
20
-348.13413130386152
42
0.53667504192892101
10
-92.297846621643146
20
-346.29156197588628
10
-92.297846621643131
20
-341.49999999999778
42
0.41421356237309503
0
CIRCLE
5
120
100
AcDbEntity
8
0
100
AcDbCircle
10
-106.79784662164315
20
-353.99999999999778
30
0
40
1.7499999999999716
210
-1.0996214285994304e-46
220
-3.0412797465376799e-77
230
1
0
LWPOLYLINE
5
121
100
AcDbEntity
8
0
100
AcDbPolyline
90
8
70
1
43
0.0
10
-86.86034662164316
20
-320.43594312950239
42
-0.2901897588511228
10
-73.233789751147611
20
-334.06249999999773
42
-0.48038446141526575
10
-75.185351625647144
20
-336.49999999999778
10
-76.211894475828345
20
-336.49999999999773
42
-0.34680204132103348
10
-78.156688095270326
20
-334.96666666666442
42
0.28209135748093517
10
-87.7645132883098
20
-325.35884147362492
42
-0.34680204132103321
10
-89.297846621643117
20
-323.41404785418297
10
-89.297846621643174
20
-322.38750500400181
42
-0.48038446141526192
0
LWPOLYLINE
5
122
100
AcDbEntity
8
0
100
AcDbPolyline
90
6
70
1
43
0.0
10
-87.297846621643131
20
-336.49999999999778
10
-82.506284645754633
20
-336.49999999999778
42
0.53667504192891691
10
-80.663715317779406
20
-333.72222222222001
42
0.19541854831079961
10
-86.520068843865374
20
-327.86586869613404
42
0.5366750419289158
10
-89.297846621643117
20
-329.70843802410923
10
-89.297846621643117
20
-334.49999999999773
42
0.41421356237309503
0
CIRCLE
5
123
100
AcDbEntity
8
0
100
AcDbCircle
10
-74.797846621643146
20
-353.99999999999778
30
0
40
1.7499999999999716
210
-1.0996214285994304e-46
220
-3.0412797465376799e-77
230
1
0
LWPOLYLINE
5
124
100
AcDbEntity
8
0
100
AcDbPolyline
90
4
70
1
43
0.0
10
72.702153378356243
20
-357.99999999999727
10
72.702153378356243
20
-337.99999999999727
10
45.702153378356236
20
-337.99999999999727
10
45.702153378356236
20
-357.99999999999727
0
CIRCLE
5
125
100
AcDbEntity
8
0
100
AcDbCircle
10
76.702153378356243
20
-360.49999999999727
30
0
40
1.749999999999998
210
-3.1554436208840479e-30
220
4.9303806576313249e-32
230
1
0
CIRCLE
5
126
100
AcDbEntity
8
0
100
AcDbCircle
10
41.702153378356243
20
-360.49999999999727
30
1.7763568394002505e-14
40
1.7500000000000246
210
5.8729388269676843e-49
220
4.9303806576313249e-32
230
1
0
CIRCLE
5
127
100
AcDbEntity
8
0
100
AcDbCircle
10
41.702153378356243
20
-335.49999999999727
30
0
40
1.7499999999999805
210
5.8729388269607078e-49
220
4.9303806576313238e-32
230
1
0
CIRCLE
5
128
100
AcDbEntity
8
0
100
AcDbCircle
10
76.702153378356243
20
-335.49999999999727
30
0
40
1.7499999999999805
210
-1.0996214285994322e-46
220
4.9303806576313238e-32
230
1
0
LWPOLYLINE
5
129
100
AcDbEntity
8
0
100
AcDbPolyline
90
8
70
1
43
0.0
10
-70.797846621644041
20
-21.999999999997407
10
-70.797846621644041
20
-38.999999999997399
42
0.41421356237309537
10
-66.797846621644027
20
-42.999999999997399
10
25.202153378355959
20
-42.999999999997399
42
0.41421356237309503
10
29.202153378355963
20
-38.999999999997399
10
29.202153378355963
20
-21.999999999997407
42
0.41421356237309598
10
25.202153378355952
20
-17.999999999997392
10
-66.797846621644041
20
-17.999999999997399
42
0.4142135623730957
0
CIRCLE
5
130
100
AcDbEntity
8
0
100
AcDbCircle
10
121.70215337835914
20
-314.34999999999911
30
0
40
1.7500000000000071
210
-8.6850322333029656e-31
220
-1.8971988383560667e-45
230
1
0
CIRCLE
5
131
100
AcDbEntity
8
0
100
AcDbCircle
10
121.70215337835934
20
-357.9999999999992
30
0
40
1.7500000000000071
210
-8.6850322333029656e-31
220
-1.8971988383560667e-45
230
1
0
CIRCLE
5
132
100
AcDbEntity
8
0
100
AcDbCircle
10
-163.25887855066469
20
-314.35000000000275
30
0
40
1.7500000000000071
210
2.2869403975537512e-30
220
4.9956989785154471e-45
230
1
0
CIRCLE
5
133
100
AcDbEntity
8
0
100
AcDbCircle
10
-163.25887855066401
20
-358.0000000000029
30
0
40
1.7500000000000071
210
2.2869403975537512e-30
220
4.9956989785154471e-45
230
1
0
LWPOLYLINE
5
134
100
AcDbEntity
8
0
100
AcDbPolyline
90
8
70
1
43
0.0
10
-168.79784662164303
20
-372.99999999999795
42
-0.41421356237310542
10
-170.79784662164303
20
-370.99999999999801
10
-170.79784662164406
20
5.0000000000020304
42
-0.41421356237309098
10
-168.79784662164411
20
7.0000000000020366
10
127.20215337835613
20
7.0000000000028813
42
-0.41421356237309664
10
129.20215337835612
20
5.0000000000029132
10
129.20215337835626
20
-370.99999999999727
42
-0.41421356237308982
10
127.20215337835626
20
-372.99999999999716
0
CIRCLE
5
135
100
AcDbEntity
8
0
100
AcDbCircle
10
121.70215337835609
20
-15.499999999997227
30
0
40
1.6249999999999964
210
1.5681964164410382e-46
220
-6.1854442231901319e-77
230
1
0
CIRCLE
5
136
100
AcDbEntity
8
0
100
AcDbCircle
10
106.70215337835666
20
-285.49999999999727
30
1.7763568394002505e-14
40
1.6250000000000142
210
1.5681964164410381e-46
220
-4.9303806576313238e-32
230
1
0
CIRCLE
5
137
100
AcDbEntity
8
0
100
AcDbCircle
10
121.70215337835609
20
-100.49999999999724
30
0
40
1.6249999999999964
210
1.5681964164410382e-46
220
-6.1854442231901319e-77
230
1
0
CIRCLE
5
138
100
AcDbEntity
8
0
100
AcDbCircle
10
121.7021533783563
20
-270.49999999999721
30
0
40
1.6250000000000142
210
1.5681964164410381e-46
220
-4.9303806576313238e-32
230
1
0
CIRCLE
5
139
100
AcDbEntity
8
0
100
AcDbCircle
10
21.702153378356645
20
-285.49999999999733
30
0
40
1.624999999999992
210
1.5681964164410384e-46
220
4.9303806576313238e-32
230
1
0
CIRCLE
5
140
100
AcDbEntity
8
0
100
AcDbCircle
10
-148.29784662164417
20
-0.49999999999750638
30
0
40
1.6249999999999964
210
1.5681964164410382e-46
220
-6.1854442231901319e-77
230
1
0
CIRCLE
5
141
100
AcDbEntity
8
0
100
AcDbCircle
10
121.70215337835609
20
-185.49999999999724
30
0
40
1.6250000000000142
210
1.5681964164410381e-46
220
-4.9303806576313238e-32
230
1
0
CIRCLE
5
142
100
AcDbEntity
8
0
100
AcDbCircle
10
-148.29784662164332
20
-285.49999999999739
30
1.7763568394002505e-14
40
1.6249999999999787
210
1.5681964164410384e-46
220
4.9303806576313238e-32
230
1
0
CIRCLE
5
143
100
AcDbEntity
8
0
100
AcDbCircle
10
-163.29784662164337
20
-270.4999999999975
30
0
40
1.6250000000000142
210
1.5681964164410381e-46
220
-4.9303806576313238e-32
230
1
0
CIRCLE
5
144
100
AcDbEntity
8
0
100
AcDbCircle
10
-163.29784662164403
20
-15.499999999997476
30
0
40
1.6249999999999787
210
1.5681964164410384e-46
220
4.9303806576313238e-32
230
1
0
CIRCLE
5
145
100
AcDbEntity
8
0
100
AcDbCircle
10
-163.29784662164357
20
-185.4999999999975
30
0
40
1.6250000000000142
210
1.5681964164410381e-46
220
-4.9303806576313238e-32
230
1
0
CIRCLE
5
146
100
AcDbEntity
8
0
100
AcDbCircle
10
-63.297846621644204
20
-0.49999999999765221
30
0
40
1.6249999999999964
210
1.5681964164410382e-46
220
-6.1854442231901319e-77
230
1
0
CIRCLE
5
147
100
AcDbEntity
8
0
100
AcDbCircle
10
106.7021533783558
20
-0.49999999999717326
30
0
40
1.6249999999999964
210
1.5681964164410382e-46
220
-6.1854442231901319e-77
230
1
0
CIRCLE
5
148
100
AcDbEntity
8
0
100
AcDbCircle
10
21.702153378355803
20
-0.49999999999741274
30
0
40
1.6250000000000009
210
1.5681964164410384e-46
220
4.9303806576313238e-32
230
1
0
CIRCLE
5
149
100
AcDbEntity
8
0
100
AcDbCircle
10
-63.297846621643352
20
-285.49999999999744
30
0
40
1.6250000000000142
210
1.5681964164410381e-46
220
-4.9303806576313238e-32
230
1
0
CIRCLE
5
150
100
AcDbEntity
8
0
100
AcDbCircle
10
-163.29784662164383
20
-100.49999999999748
30
0
40
1.6250000000000142
210
1.5681964164410381e-46
220
-4.9303806576313238e-32
230
1
0
CIRCLE
5
151
100
AcDbEntity
8
0
100
AcDbCircle
10
121.70215337835678
20
-285.49999999999721
30
0
40
3.499999999999996
210
-3.1554436208840479e-30
220
4.9303806576313249e-32
230
1
0
CIRCLE
5
152
100
AcDbEntity
8
0
100
AcDbCircle
10
-163.29784662164417
20
-0.4999999999974683
30
0
40
3.499999999999996
210
-3.1554436208840479e-30
220
4.9303806576313249e-32
230
1
0
CIRCLE
5
153
100
AcDbEntity
8
0
100
AcDbCircle
10
121.70215337835599
20
-0.49999999999713024
30
0
40
3.499999999999996
210
-3.1554436208840479e-30
220
4.9303806576313249e-32
230
1
0
CIRCLE
5
154
100
AcDbEntity
8
0
100
AcDbCircle
10
-163.29784662164332
20
-285.4999999999975
30
0
40
3.499999999999996
210
-3.1554436208840479e-30
220
4.9303806576313249e-32
230
1
0
ENDSEC
0
SECTION
2
OBJECTS
0
DICTIONARY
5
C
100
AcDbDictionary
3
ACAD_GROUP
350
D
3
ACAD_MLINESTYLE
350
17
0
DICTIONARY
5
D
100
AcDbDictionary
0
DICTIONARY
5
1A
330
C
100
AcDbDictionary
0
DICTIONARY
5
17
100
AcDbDictionary
0
ENDSEC
0
EOF
