0
SECTION
2
HEADER
9
$INSUNITS
70
4
9
$ACADVER
1
AC1014
9
$HANDSEED
5
FFFF
0
ENDSEC
0
SECTION
2
TABLES
0
TABLE
2
VPORT
5
8
100
AcDbSymbolTable
0
ENDTAB
0
TABLE
2
LTYPE
5
5
100
AcDbSymbolTable
0
LTYPE
5
14
100
AcDbSymbolTableRecord
100
AcDbLinetypeTableRecord
2
BYBLOCK
70
0
0
LTYPE
5
15
100
AcDbSymbolTableRecord
100
AcDbLinetypeTableRecord
2
BYLAYER
70
0
0
ENDTAB
0
TABLE
2
LAYER
5
2
100
AcDbSymbolTable
70
2
0
LAYER
5
50
100
AcDbSymbolTableRecord
100
AcDbLayerTableRecord
2
0
70
0
6
CONTINUOUS
0
ENDTAB
0
TABLE
2
STYLE
5
3
100
AcDbSymbolTable
70
1
0
STYLE
5
11
100
AcDbSymbolTableRecord
100
AcDbTextStyleTableRecord
2
STANDARD
70
0
0
ENDTAB
0
TABLE
2
VIEW
5
6
100
AcDbSymbolTable
70
0
0
ENDTAB
0
TABLE
2
UCS
5
7
100
AcDbSymbolTable
70
0
0
ENDTAB
0
TABLE
2
APPID
5
9
100
AcDbSymbolTable
70
2
0
APPID
5
12
100
AcDbSymbolTableRecord
100
AcDbRegAppTableRecord
2
ACAD
70
0
0
ENDTAB
0
TABLE
2
DIMSTYLE
5
A
100
AcDbSymbolTable
70
1
0
ENDTAB
0
TABLE
2
BLOCK_RECORD
5
1
100
AcDbSymbolTable
70
1
0
BLOCK_RECORD
5
1F
100
AcDbSymbolTableRecord
100
AcDbBlockTableRecord
2
*MODEL_SPACE
0
BLOCK_RECORD
5
1B
100
AcDbSymbolTableRecord
100
AcDbBlockTableRecord
2
*PAPER_SPACE
0
ENDTAB
0
ENDSEC
0
SECTION
2
BLOCKS
0
BLOCK
5
20
100
AcDbEntity
100
AcDbBlockBegin
2
*MODEL_SPACE
0
ENDBLK
5
21
100
AcDbEntity
100
AcDbBlockEnd
0
BLOCK
5
1C
100
AcDbEntity
100
AcDbBlockBegin
2
*PAPER_SPACE
0
ENDBLK
5
1D
100
AcDbEntity
100
AcDbBlockEnd
0
ENDSEC
0
SECTION
2
ENTITIES
0
CIRCLE
5
100
100
AcDbEntity
8
0
100
AcDbCircle
10
80.20215337835478
20
-78.999999999996675
30
-1.7763568394002505e-14
40
1.9999999999999929
210
-2.3872348424810708e-46
220
-1.9721522630525295e-31
230
1
0
CIRCLE
5
101
100
AcDbEntity
8
0
100
AcDbCircle
10
-11.797846621645252
20
-78.999999999996675
30
0
40
2.0000000000000018
210
-2.9199547175638988e-52
220
7.3709129086461564e-89
230
1
0
CIRCLE
5
102
100
AcDbEntity
8
0
100
AcDbCircle
10
80.20215337835478
20
-193.99999999999667
30
0
40
1.9999999999999929
210
4.4565000759256581e-46
220
-1.9721522630525295e-31
230
1
0
CIRCLE
5
103
100
AcDbEntity
8
0
100
AcDbCircle
10
-11.797846621645252
20
-193.99999999999667
30
0
40
1.9999999999999929
210
5.4509837863286135e-52
220
-1.9721522630525295e-31
230
1
0
CIRCLE
5
104
100
AcDbEntity
8
0
100
AcDbCircle
10
-147.79784662164346
20
-15.99999999999808
30
0
40
9.4999999999999929
210
8.2436334831296278e-48
220
-1.9721522630525295e-31
230
1
0
CIRCLE
5
105
100
AcDbEntity
8
0
100
AcDbCircle
10
-20.797846621644425
20
-19.999999999997829
30
0
40
12.5
210
-1.1776767423765915e-48
220
1.1990056938473578e-81
230
1
0
CIRCLE
5
106
100
AcDbEntity
8
0
100
AcDbCircle
10
106.20215337835474
20
-15.999999999997579
30
0
40
9.5000000000000107
210
8.2436334831296642e-48
220
5.8749800721877889e-80
230
1
0
CIRCLE
5
107
100
AcDbEntity
8
0
100
AcDbCircle
10
121.70215337835474
20
-185.49999999999687
30
0
40
1.6250000000000142
210
-1.1101913028451473e-30
220
1.4693768669535922e-44
230
1
0
CIRCLE
5
108
100
AcDbEntity
8
0
100
AcDbCircle
10
-16.297846621633038
20
-257.99999999999613
30
0
40
12.499999999999964
210
-1.1101913028451445e-30
220
1.4693768669535885e-44
230
1
0
CIRCLE
5
109
100
AcDbEntity
8
0
100
AcDbCircle
10
64.202153378369289
20
-43.499999999998138
30
0
40
1.6249999999999964
210
-2.6879131132871705e-30
220
-1.9721522630521737e-31
230
1
0
CIRCLE
5
110
100
AcDbEntity
8
0
100
AcDbCircle
10
21.702153378355106
20
-0.49999999999769518
30
0
40
1.6249999999999964
210
-2.6879131132871705e-30
220
-1.9721522630521737e-31
230
1
0
CIRCLE
5
111
100
AcDbEntity
8
0
100
AcDbCircle
10
-99.29784662162929
20
-12.499999999996961
30
1.7763568394002505e-14
40
1.6249999999999964
210
-2.6879131132871705e-30
220
-1.9721522630521737e-31
230
1
0
CIRCLE
5
112
100
AcDbEntity
8
0
100
AcDbCircle
10
-0.79784662163335929
20
-273.49999999999636
30
1.7763568394002505e-14
40
1.6249999999999964
210
-2.6879131132871705e-30
220
-1.9721522630521737e-31
230
1
0
CIRCLE
5
113
100
AcDbEntity
8
0
100
AcDbCircle
10
106.70215337835455
20
-0.4999999999975353
30
0
40
1.6249999999999964
210
-2.6879131132871705e-30
220
-1.9721522630521737e-31
230
1
0
CIRCLE
5
114
100
AcDbEntity
8
0
100
AcDbCircle
10
-163.29784662164346
20
-15.499999999997536
30
0
40
1.6249999999999787
210
-1.1101913028451499e-30
220
-1.9721522630523826e-31
230
1
0
CIRCLE
5
115
100
AcDbEntity
8
0
100
AcDbCircle
10
121.70215337835474
20
-100.49999999999724
30
0
40
1.6249999999999876
210
-1.1101913028451471e-30
220
-1.9721522630523826e-31
230
1
0
CIRCLE
5
116
100
AcDbEntity
8
0
100
AcDbCircle
10
106.7021533783554
20
-285.49999999999659
30
0
40
1.6250000000000142
210
-1.1101913028451473e-30
220
1.4693768669535922e-44
230
1
0
CIRCLE
5
117
100
AcDbEntity
8
0
100
AcDbCircle
10
-68.297846621629844
20
-43.499999999996284
30
1.7763568394002505e-14
40
1.6249999999999964
210
-2.6879131132871705e-30
220
-1.9721522630521737e-31
230
1
0
CIRCLE
5
118
100
AcDbEntity
8
0
100
AcDbCircle
10
-148.29784662164371
20
-0.49999999999764189
30
0
40
1.6249999999999964
210
-2.6879131132871705e-30
220
-1.9721522630521737e-31
230
1
0
CIRCLE
5
119
100
AcDbEntity
8
0
100
AcDbCircle
10
63.739212647020587
20
-14.522693866101458
30
0
40
1.6249999999999964
210
-2.6879131132871705e-30
220
-1.9721522630521737e-31
230
1
0
CIRCLE
5
120
100
AcDbEntity
8
0
100
AcDbCircle
10
-163.29784662164283
20
-285.49999999999653
30
0
40
3.4999999999999787
210
4.6753050759687914e-31
220
-6.1879291496642782e-45
230
1
0
CIRCLE
5
121
100
AcDbEntity
8
0
100
AcDbCircle
10
121.70215337835498
20
-270.49999999999653
30
0
40
1.6250000000000142
210
-1.1101913028451473e-30
220
1.4693768669535922e-44
230
1
0
CIRCLE
5
122
100
AcDbEntity
8
0
100
AcDbCircle
10
-31.797846621633127
20
-273.49999999999591
30
1.7763568394002505e-14
40
1.6249999999999964
210
-2.6879131132871705e-30
220
-1.9721522630521737e-31
230
1
0
CIRCLE
5
123
100
AcDbEntity
8
0
100
AcDbCircle
10
33.665089090542196
20
-14.522671936219778
30
0
40
1.6249999999999964
210
-2.6879131132871705e-30
220
-1.9721522630521737e-31
230
1
0
CIRCLE
5
124
100
AcDbEntity
8
0
100
AcDbCircle
10
-31.797846621632782
20
-242.49999999999699
30
1.7763568394002505e-14
40
1.6249999999999964
210
-2.6879131132871705e-30
220
-1.9721522630521737e-31
230
1
0
CIRCLE
5
125
100
AcDbEntity
8
0
100
AcDbCircle
10
121.70215337835475
20
-15.499999999997572
30
0
40
1.6249999999999964
210
-2.6879131132871705e-30
220
-1.9721522630521737e-31
230
1
0
CIRCLE
5
126
100
AcDbEntity
8
0
100
AcDbCircle
10
-163.29784662164332
20
-100.49999999999721
30
0
40
1.6250000000000053
210
-1.1101913028451445e-30
220
1.4693768669535885e-44
230
1
0
CIRCLE
5
127
100
AcDbEntity
8
0
100
AcDbCircle
10
-148.29784662164286
20
-285.49999999999648
30
0
40
1.6249999999999787
210
-1.1101913028451499e-30
220
-1.9721522630523826e-31
230
1
0
CIRCLE
5
128
100
AcDbEntity
8
0
100
AcDbCircle
10
-163.29784662164309
20
-185.49999999999687
30
0
40
1.6250000000000142
210
-1.1101913028451473e-30
220
1.4693768669535922e-44
230
1
0
CIRCLE
5
129
100
AcDbEntity
8
0
100
AcDbCircle
10
-163.29784662164369
20
-0.4999999999975886
30
0
40
3.499999999999996
210
4.6753050759687099e-31
220
-1.9721522630525917e-31
230
1
0
CIRCLE
5
130
100
AcDbEntity
8
0
100
AcDbCircle
10
121.70215337835542
20
-285.49999999999653
30
0
40
3.4999999999999787
210
4.6753050759687914e-31
220
-6.1879291496642782e-45
230
1
0
CIRCLE
5
131
100
AcDbEntity
8
0
100
AcDbCircle
10
-63.297846621644318
20
-0.49999999999787281
30
0
40
1.6249999999999964
210
-2.6879131132871705e-30
220
-1.9721522630521737e-31
230
1
0
CIRCLE
5
132
100
AcDbEntity
8
0
100
AcDbCircle
10
-163.2978466216428
20
-270.49999999999659
30
0
40
1.6250000000000142
210
-1.1101913028451473e-30
220
1.4693768669535922e-44
230
1
0
CIRCLE
5
133
100
AcDbEntity
8
0
100
AcDbCircle
10
-83.797846621629503
20
-27.999999999996096
30
0
40
12.499999999999964
210
-1.1101913028451445e-30
220
1.4693768669535885e-44
230
1
0
CIRCLE
5
134
100
AcDbEntity
8
0
100
AcDbCircle
10
48.702153378369587
20
-27.999999999997979
30
0
40
12.499999999999964
210
-1.1101913028451445e-30
220
1.4693768669535885e-44
230
1
0
CIRCLE
5
135
100
AcDbEntity
8
0
100
AcDbCircle
10
33.202153378369481
20
-43.499999999997712
30
0
40
1.6250000000000053
210
-1.1101913028451445e-30
220
1.4693768669535885e-44
230
1
0
CIRCLE
5
136
100
AcDbEntity
8
0
100
AcDbCircle
10
-68.297846621629475
20
-12.499999999997405
30
1.7763568394002505e-14
40
1.6249999999999964
210
-2.6879131132871705e-30
220
-1.9721522630521737e-31
230
1
0
CIRCLE
5
137
100
AcDbEntity
8
0
100
AcDbCircle
10
-0.79784662163298625
20
-242.49999999999747
30
1.7763568394002505e-14
40
1.6249999999999964
210
-2.6879131132871705e-30
220
-1.9721522630521737e-31
230
1
0
CIRCLE
5
138
100
AcDbEntity
8
0
100
AcDbCircle
10
-63.297846621643465
20
-285.49999999999653
30
0
40
1.6250000000000142
210
-1.1101913028451473e-30
220
1.4693768669535922e-44
230
1
0
CIRCLE
5
139
100
AcDbEntity
8
0
100
AcDbCircle
10
21.702153378355973
20
-285.49999999999653
30
0
40
1.6249999999999787
210
-1.1101913028451499e-30
220
-1.9721522630523826e-31
230
1
0
CIRCLE
5
140
100
AcDbEntity
8
0
100
AcDbCircle
10
121.70215337835464
20
-0.49999999999751754
30
0
40
3.499999999999996
210
4.6753050759687099e-31
220
-1.9721522630525917e-31
230
1
0
CIRCLE
5
141
100
AcDbEntity
8
0
100
AcDbCircle
10
-99.297846621629603
20
-43.499999999995858
30
1.7763568394002505e-14
40
1.6250000000000053
210
-1.1101913028451445e-30
220
1.4693768669535885e-44
230
1
0
LWPOLYLINE
5
142
100
AcDbEntity
8
0
100
AcDbPolyline
90
8
70
1
43
0.0
10
127.20215337835477
20
-292.99999999999636
10
-168.79784662164275
20
-292.99999999999699
42
-0.41421356237310025
10
-170.79784662164272
20
-290.99999999999693
10
-170.79784662164349
20
5.0000000000018137
42
-0.41421356237310025
10
-168.79784662164354
20
7.0000000000018776
10
127.20215337835469
20
7.0000000000024638
42
-0.41421356237311618
10
129.20215337835475
20
5.0000000000024158
10
129.20215337835472
20
-290.99999999999642
42
-0.41421356237309503
0
CIRCLE
5
143
100
AcDbEntity
8
0
100
AcDbCircle
10
-74.297846621645235
20
-166.89999999999668
30
1.7763568394002505e-14
40
1.7500000000000071
210
-1.5777218104420229e-30
220
-8.886350684212774e-61
230
1
0
CIRCLE
5
144
100
AcDbEntity
8
0
100
AcDbCircle
10
-123.29784662164525
20
-166.89999999999668
30
0
40
1.7500000000000071
210
-1.5777218104420247e-30
220
1.663994949338353e-60
230
1
0
CIRCLE
5
145
100
AcDbEntity
8
0
100
AcDbCircle
10
-74.297846621645235
20
-108.89999999999667
30
0
40
1.7500000000000071
210
-1.5777218104420229e-30
220
-8.886350684212774e-61
230
1
0
CIRCLE
5
146
100
AcDbEntity
8
0
100
AcDbCircle
10
-123.29784662164525
20
-108.89999999999667
30
0
40
1.7499999999999893
210
-1.2199794795248104e-45
220
1.2866905171685328e-75
230
1
0
ENDSEC
0
SECTION
2
OBJECTS
0
DICTIONARY
5
C
100
AcDbDictionary
3
ACAD_GROUP
350
D
3
ACAD_MLINESTYLE
350
17
0
DICTIONARY
5
D
100
AcDbDictionary
0
DICTIONARY
5
1A
330
C
100
AcDbDictionary
0
DICTIONARY
5
17
100
AcDbDictionary
0
ENDSEC
0
EOF
