0
SECTION
2
HEADER
9
$INSUNITS
70
4
9
$ACADVER
1
AC1014
9
$HANDSEED
5
FFFF
0
ENDSEC
0
SECTION
2
TABLES
0
TABLE
2
VPORT
5
8
100
AcDbSymbolTable
0
ENDTAB
0
TABLE
2
LTYPE
5
5
100
AcDbSymbolTable
0
LTYPE
5
14
100
AcDbSymbolTableRecord
100
AcDbLinetypeTableRecord
2
BYBLOCK
70
0
0
LTYPE
5
15
100
AcDbSymbolTableRecord
100
AcDbLinetypeTableRecord
2
BYLAYER
70
0
0
ENDTAB
0
TABLE
2
LAYER
5
2
100
AcDbSymbolTable
70
2
0
LAYER
5
50
100
AcDbSymbolTableRecord
100
AcDbLayerTableRecord
2
0
70
0
6
CONTINUOUS
0
ENDTAB
0
TABLE
2
STYLE
5
3
100
AcDbSymbolTable
70
1
0
STYLE
5
11
100
AcDbSymbolTableRecord
100
AcDbTextStyleTableRecord
2
STANDARD
70
0
0
ENDTAB
0
TABLE
2
VIEW
5
6
100
AcDbSymbolTable
70
0
0
ENDTAB
0
TABLE
2
UCS
5
7
100
AcDbSymbolTable
70
0
0
ENDTAB
0
TABLE
2
APPID
5
9
100
AcDbSymbolTable
70
2
0
APPID
5
12
100
AcDbSymbolTableRecord
100
AcDbRegAppTableRecord
2
ACAD
70
0
0
ENDTAB
0
TABLE
2
DIMSTYLE
5
A
100
AcDbSymbolTable
70
1
0
ENDTAB
0
TABLE
2
BLOCK_RECORD
5
1
100
AcDbSymbolTable
70
1
0
BLOCK_RECORD
5
1F
100
AcDbSymbolTableRecord
100
AcDbBlockTableRecord
2
*MODEL_SPACE
0
BLOCK_RECORD
5
1B
100
AcDbSymbolTableRecord
100
AcDbBlockTableRecord
2
*PAPER_SPACE
0
ENDTAB
0
ENDSEC
0
SECTION
2
BLOCKS
0
BLOCK
5
20
100
AcDbEntity
100
AcDbBlockBegin
2
*MODEL_SPACE
0
ENDBLK
5
21
100
AcDbEntity
100
AcDbBlockEnd
0
BLOCK
5
1C
100
AcDbEntity
100
AcDbBlockBegin
2
*PAPER_SPACE
0
ENDBLK
5
1D
100
AcDbEntity
100
AcDbBlockEnd
0
ENDSEC
0
SECTION
2
ENTITIES
0
CIRCLE
5
100
100
AcDbEntity
8
0
100
AcDbCircle
10
121.70217678344572
20
-314.3499999999965
30
0
40
1.7500000000000071
210
-9.2352691933503249e-31
220
-2.1452064730095698e-45
230
1
0
CIRCLE
5
101
100
AcDbEntity
8
0
100
AcDbCircle
10
121.7021767834463
20
-357.99999999999665
30
0
40
1.7499999999999716
210
-9.2352691933503214e-31
220
-4.9303806576315384e-32
230
1
0
CIRCLE
5
102
100
AcDbEntity
8
0
100
AcDbCircle
10
-163.29782321654986
20
-357.9999999999996
30
0
40
1.7499999999999716
210
2.2319167015490142e-30
220
-4.9303806576308054e-32
230
1
0
CIRCLE
5
103
100
AcDbEntity
8
0
100
AcDbCircle
10
-163.29782321655031
20
-314.34999999999951
30
0
40
1.7500000000000071
210
2.2319167015490142e-30
220
5.1843883000493004e-45
230
1
0
LWPOLYLINE
5
104
100
AcDbEntity
8
0
100
AcDbPolyline
90
8
70
1
43
0.0
10
-168.79784662164309
20
-372.99999999999795
42
-0.41421356237310025
10
-170.79784662164309
20
-370.99999999999801
10
-170.79784662164411
20
5.0000000000020268
42
-0.4142135623730962
10
-168.79784662164411
20
7.0000000000020446
10
127.20215337835612
20
7.0000000000028608
42
-0.4142135623730962
10
129.20215337835609
20
5.0000000000029132
10
129.20215337835626
20
-370.99999999999716
42
-0.41421356237308721
10
127.20215337835623
20
-372.99999999999716
0
LWPOLYLINE
5
105
100
AcDbEntity
8
0
100
AcDbPolyline
90
8
70
1
43
0.0
10
94.760109911159958
20
-22.442043467193344
10
-136.35580315444784
20
-22.442043467194001
42
0.41421356237309581
10
-141.35580315444787
20
-27.442043467194033
10
-141.35580315444724
20
-258.55795653280171
42
0.41421356237309087
10
-136.35580315444722
20
-263.55795653280177
10
94.760109911160043
20
-263.55795653280109
42
0.41421356237309609
10
99.760109911160015
20
-258.55795653280109
10
99.760109911159986
20
-27.442043467193358
42
0.41421356237309609
0
CIRCLE
5
106
100
AcDbEntity
8
0
100
AcDbCircle
10
-163.29784662164386
20
-100.49999999999748
30
0
40
1.6250000000000142
210
1.5681964164410381e-46
220
-4.9303806576313238e-32
230
1
0
CIRCLE
5
107
100
AcDbEntity
8
0
100
AcDbCircle
10
21.702153378356627
20
-285.49999999999733
30
0
40
1.624999999999992
210
1.5681964164410384e-46
220
4.9303806576313238e-32
230
1
0
CIRCLE
5
108
100
AcDbEntity
8
0
100
AcDbCircle
10
106.70215337835664
20
-285.49999999999727
30
1.7763568394002505e-14
40
1.6250000000000142
210
1.5681964164410381e-46
220
-4.9303806576313238e-32
230
1
0
CIRCLE
5
109
100
AcDbEntity
8
0
100
AcDbCircle
10
-148.2978466216442
20
-0.49999999999750916
30
0
40
1.6249999999999964
210
1.5681964164410382e-46
220
-6.1854442231901319e-77
230
1
0
CIRCLE
5
110
100
AcDbEntity
8
0
100
AcDbCircle
10
121.70215337835607
20
-15.499999999997229
30
0
40
1.6249999999999964
210
1.5681964164410382e-46
220
-6.1854442231901319e-77
230
1
0
CIRCLE
5
111
100
AcDbEntity
8
0
100
AcDbCircle
10
121.70215337835607
20
-185.49999999999724
30
0
40
1.6250000000000142
210
1.5681964164410381e-46
220
-4.9303806576313238e-32
230
1
0
CIRCLE
5
112
100
AcDbEntity
8
0
100
AcDbCircle
10
-148.29784662164334
20
-285.49999999999739
30
1.7763568394002505e-14
40
1.6249999999999787
210
1.5681964164410384e-46
220
4.9303806576313238e-32
230
1
0
CIRCLE
5
113
100
AcDbEntity
8
0
100
AcDbCircle
10
-163.29784662164406
20
-15.499999999997478
30
0
40
1.6249999999999787
210
1.5681964164410384e-46
220
4.9303806576313238e-32
230
1
0
CIRCLE
5
114
100
AcDbEntity
8
0
100
AcDbCircle
10
-63.297846621643359
20
-285.49999999999744
30
0
40
1.6250000000000142
210
1.5681964164410381e-46
220
-4.9303806576313238e-32
230
1
0
CIRCLE
5
115
100
AcDbEntity
8
0
100
AcDbCircle
10
121.70215337835629
20
-270.49999999999721
30
0
40
1.6250000000000142
210
1.5681964164410381e-46
220
-4.9303806576313238e-32
230
1
0
CIRCLE
5
116
100
AcDbEntity
8
0
100
AcDbCircle
10
121.70215337835607
20
-100.49999999999724
30
0
40
1.6249999999999964
210
1.5681964164410382e-46
220
-6.1854442231901319e-77
230
1
0
CIRCLE
5
117
100
AcDbEntity
8
0
100
AcDbCircle
10
-63.297846621644211
20
-0.49999999999765499
30
0
40
1.6249999999999964
210
1.5681964164410382e-46
220
-6.1854442231901319e-77
230
1
0
CIRCLE
5
118
100
AcDbEntity
8
0
100
AcDbCircle
10
-163.2978466216436
20
-185.4999999999975
30
0
40
1.6250000000000142
210
1.5681964164410381e-46
220
-4.9303806576313238e-32
230
1
0
CIRCLE
5
119
100
AcDbEntity
8
0
100
AcDbCircle
10
-163.2978466216434
20
-270.4999999999975
30
0
40
1.6250000000000142
210
1.5681964164410381e-46
220
-4.9303806576313238e-32
230
1
0
CIRCLE
5
120
100
AcDbEntity
8
0
100
AcDbCircle
10
21.702153378355785
20
-0.49999999999741551
30
0
40
1.6250000000000009
210
1.5681964164410384e-46
220
4.9303806576313238e-32
230
1
0
CIRCLE
5
121
100
AcDbEntity
8
0
100
AcDbCircle
10
-163.29784662164337
20
-285.4999999999975
30
0
40
3.499999999999996
210
-3.1554436208840479e-30
220
4.9303806576313249e-32
230
1
0
CIRCLE
5
122
100
AcDbEntity
8
0
100
AcDbCircle
10
121.70215337835677
20
-285.49999999999721
30
0
40
3.499999999999996
210
-3.1554436208840479e-30
220
4.9303806576313249e-32
230
1
0
CIRCLE
5
123
100
AcDbEntity
8
0
100
AcDbCircle
10
-163.29784662164423
20
-0.49999999999747108
30
0
40
3.499999999999996
210
-3.1554436208840479e-30
220
4.9303806576313249e-32
230
1
0
CIRCLE
5
124
100
AcDbEntity
8
0
100
AcDbCircle
10
106.70215337835579
20
-0.49999999999717604
30
0
40
1.6249999999999964
210
1.5681964164410382e-46
220
-6.1854442231901319e-77
230
1
0
CIRCLE
5
125
100
AcDbEntity
8
0
100
AcDbCircle
10
121.70215337835597
20
-0.49999999999713302
30
0
40
3.499999999999996
210
-3.1554436208840479e-30
220
4.9303806576313249e-32
230
1
0
LWPOLYLINE
5
126
100
AcDbEntity
8
0
100
AcDbPolyline
90
4
70
1
43
0.0
10
84.202153378356229
20
-312.99999999999721
10
56.702153378356229
20
-312.99999999999721
10
56.702153378356229
20
-347.99999999999721
10
84.202153378356229
20
-347.99999999999721
0
CIRCLE
5
127
100
AcDbEntity
8
0
100
AcDbCircle
10
51.702153378356229
20
-312.99999999999721
30
0
40
1.7500000000000084
210
0
220
0
230
1
0
CIRCLE
5
128
100
AcDbEntity
8
0
100
AcDbCircle
10
51.702153378356229
20
-347.99999999999721
30
0
40
1.7499999999999936
210
0
220
0
230
1
0
CIRCLE
5
129
100
AcDbEntity
8
0
100
AcDbCircle
10
89.202153378356229
20
-347.99999999999721
30
0
40
1.7499999999999787
210
0
220
0
230
1
0
CIRCLE
5
130
100
AcDbEntity
8
0
100
AcDbCircle
10
89.202153378356229
20
-312.99999999999721
30
0
40
1.7499999999999956
210
0
220
0
230
1
0
ENDSEC
0
SECTION
2
OBJECTS
0
DICTIONARY
5
C
100
AcDbDictionary
3
ACAD_GROUP
350
D
3
ACAD_MLINESTYLE
350
17
0
DICTIONARY
5
D
100
AcDbDictionary
0
DICTIONARY
5
1A
330
C
100
AcDbDictionary
0
DICTIONARY
5
17
100
AcDbDictionary
0
ENDSEC
0
EOF
