0
SECTION
2
HEADER
9
$INSUNITS
70
4
9
$ACADVER
1
AC1014
9
$HANDSEED
5
FFFF
0
ENDSEC
0
SECTION
2
TABLES
0
TABLE
2
VPORT
5
8
100
AcDbSymbolTable
0
ENDTAB
0
TABLE
2
LTYPE
5
5
100
AcDbSymbolTable
0
LTYPE
5
14
100
AcDbSymbolTableRecord
100
AcDbLinetypeTableRecord
2
BYBLOCK
70
0
0
LTYPE
5
15
100
AcDbSymbolTableRecord
100
AcDbLinetypeTableRecord
2
BYLAYER
70
0
0
ENDTAB
0
TABLE
2
LAYER
5
2
100
AcDbSymbolTable
70
2
0
LAYER
5
50
100
AcDbSymbolTableRecord
100
AcDbLayerTableRecord
2
0
70
0
6
CONTINUOUS
0
ENDTAB
0
TABLE
2
STYLE
5
3
100
AcDbSymbolTable
70
1
0
STYLE
5
11
100
AcDbSymbolTableRecord
100
AcDbTextStyleTableRecord
2
STANDARD
70
0
0
ENDTAB
0
TABLE
2
VIEW
5
6
100
AcDbSymbolTable
70
0
0
ENDTAB
0
TABLE
2
UCS
5
7
100
AcDbSymbolTable
70
0
0
ENDTAB
0
TABLE
2
APPID
5
9
100
AcDbSymbolTable
70
2
0
APPID
5
12
100
AcDbSymbolTableRecord
100
AcDbRegAppTableRecord
2
ACAD
70
0
0
ENDTAB
0
TABLE
2
DIMSTYLE
5
A
100
AcDbSymbolTable
70
1
0
ENDTAB
0
TABLE
2
BLOCK_RECORD
5
1
100
AcDbSymbolTable
70
1
0
BLOCK_RECORD
5
1F
100
AcDbSymbolTableRecord
100
AcDbBlockTableRecord
2
*MODEL_SPACE
0
BLOCK_RECORD
5
1B
100
AcDbSymbolTableRecord
100
AcDbBlockTableRecord
2
*PAPER_SPACE
0
ENDTAB
0
ENDSEC
0
SECTION
2
BLOCKS
0
BLOCK
5
20
100
AcDbEntity
100
AcDbBlockBegin
2
*MODEL_SPACE
0
ENDBLK
5
21
100
AcDbEntity
100
AcDbBlockEnd
0
BLOCK
5
1C
100
AcDbEntity
100
AcDbBlockBegin
2
*PAPER_SPACE
0
ENDBLK
5
1D
100
AcDbEntity
100
AcDbBlockEnd
0
ENDSEC
0
SECTION
2
ENTITIES
0
CIRCLE
5
100
100
AcDbEntity
8
0
100
AcDbCircle
10
121.70215337835599
20
-0.49999999999713024
30
0
40
3.499999999999996
210
-3.1554436208840479e-30
220
4.9303806576313249e-32
230
1
0
CIRCLE
5
101
100
AcDbEntity
8
0
100
AcDbCircle
10
-148.29784662164332
20
-285.49999999999739
30
1.7763568394002505e-14
40
1.6249999999999787
210
1.5681964164410384e-46
220
4.9303806576313238e-32
230
1
0
CIRCLE
5
102
100
AcDbEntity
8
0
100
AcDbCircle
10
121.70215337835609
20
-100.49999999999724
30
0
40
1.6249999999999964
210
1.5681964164410382e-46
220
-6.1854442231901319e-77
230
1
0
CIRCLE
5
103
100
AcDbEntity
8
0
100
AcDbCircle
10
-148.29784662164417
20
-0.49999999999750638
30
0
40
1.6249999999999964
210
1.5681964164410382e-46
220
-6.1854442231901319e-77
230
1
0
CIRCLE
5
104
100
AcDbEntity
8
0
100
AcDbCircle
10
121.7021533783563
20
-270.49999999999721
30
0
40
1.6250000000000142
210
1.5681964164410381e-46
220
-4.9303806576313238e-32
230
1
0
CIRCLE
5
105
100
AcDbEntity
8
0
100
AcDbCircle
10
21.702153378356645
20
-285.49999999999733
30
0
40
1.624999999999992
210
1.5681964164410384e-46
220
4.9303806576313238e-32
230
1
0
CIRCLE
5
106
100
AcDbEntity
8
0
100
AcDbCircle
10
106.70215337835666
20
-285.49999999999727
30
1.7763568394002505e-14
40
1.6250000000000142
210
1.5681964164410381e-46
220
-4.9303806576313238e-32
230
1
0
CIRCLE
5
107
100
AcDbEntity
8
0
100
AcDbCircle
10
121.70215337835609
20
-185.49999999999724
30
0
40
1.6250000000000142
210
1.5681964164410381e-46
220
-4.9303806576313238e-32
230
1
0
CIRCLE
5
108
100
AcDbEntity
8
0
100
AcDbCircle
10
121.70215337835609
20
-15.499999999997227
30
0
40
1.6249999999999964
210
1.5681964164410382e-46
220
-6.1854442231901319e-77
230
1
0
CIRCLE
5
109
100
AcDbEntity
8
0
100
AcDbCircle
10
-163.29784662164357
20
-185.4999999999975
30
0
40
1.6250000000000142
210
1.5681964164410381e-46
220
-4.9303806576313238e-32
230
1
0
CIRCLE
5
110
100
AcDbEntity
8
0
100
AcDbCircle
10
-163.29784662164332
20
-285.4999999999975
30
0
40
3.499999999999996
210
-3.1554436208840479e-30
220
4.9303806576313249e-32
230
1
0
CIRCLE
5
111
100
AcDbEntity
8
0
100
AcDbCircle
10
-163.29784662164337
20
-270.4999999999975
30
0
40
1.6250000000000142
210
1.5681964164410381e-46
220
-4.9303806576313238e-32
230
1
0
CIRCLE
5
112
100
AcDbEntity
8
0
100
AcDbCircle
10
-163.29784662164383
20
-100.49999999999748
30
0
40
1.6250000000000142
210
1.5681964164410381e-46
220
-4.9303806576313238e-32
230
1
0
CIRCLE
5
113
100
AcDbEntity
8
0
100
AcDbCircle
10
21.702153378355803
20
-0.49999999999741274
30
0
40
1.6250000000000009
210
1.5681964164410384e-46
220
4.9303806576313238e-32
230
1
0
CIRCLE
5
114
100
AcDbEntity
8
0
100
AcDbCircle
10
106.7021533783558
20
-0.49999999999717326
30
0
40
1.6249999999999964
210
1.5681964164410382e-46
220
-6.1854442231901319e-77
230
1
0
CIRCLE
5
115
100
AcDbEntity
8
0
100
AcDbCircle
10
-63.297846621644204
20
-0.49999999999765221
30
0
40
1.6249999999999964
210
1.5681964164410382e-46
220
-6.1854442231901319e-77
230
1
0
CIRCLE
5
116
100
AcDbEntity
8
0
100
AcDbCircle
10
-63.297846621643352
20
-285.49999999999744
30
0
40
1.6250000000000142
210
1.5681964164410381e-46
220
-4.9303806576313238e-32
230
1
0
CIRCLE
5
117
100
AcDbEntity
8
0
100
AcDbCircle
10
121.70215337835678
20
-285.49999999999721
30
0
40
3.499999999999996
210
-3.1554436208840479e-30
220
4.9303806576313249e-32
230
1
0
CIRCLE
5
118
100
AcDbEntity
8
0
100
AcDbCircle
10
-163.29784662164417
20
-0.4999999999974683
30
0
40
3.499999999999996
210
-3.1554436208840479e-30
220
4.9303806576313249e-32
230
1
0
CIRCLE
5
119
100
AcDbEntity
8
0
100
AcDbCircle
10
-163.29784662164403
20
-15.499999999997476
30
0
40
1.6249999999999787
210
1.5681964164410384e-46
220
4.9303806576313238e-32
230
1
0
LWPOLYLINE
5
120
100
AcDbEntity
8
0
100
AcDbPolyline
90
8
70
1
43
0.0
10
-168.79784662164303
20
-372.99999999999795
42
-0.41421356237310542
10
-170.79784662164303
20
-370.99999999999801
10
-170.79784662164406
20
5.0000000000020304
42
-0.4142135623730962
10
-168.79784662164411
20
7.0000000000020366
10
127.20215337835613
20
7.000000000002899
42
-0.41421356237309664
10
129.20215337835614
20
5.0000000000029132
10
129.20215337835626
20
-370.99999999999727
42
-0.41421356237308982
10
127.20215337835626
20
-372.99999999999716
0
CIRCLE
5
121
100
AcDbEntity
8
0
100
AcDbCircle
10
121.70215337835643
20
-358.00000000000074
30
0
40
1.7500000000000071
210
2.0330373159078643e-30
220
5.7393859276279595e-45
230
1
0
CIRCLE
5
122
100
AcDbEntity
8
0
100
AcDbCircle
10
-163.29784662164491
20
-358.00000000000017
30
0
40
1.7499999999999716
210
2.0330373159078643e-30
220
-4.9303806576307496e-32
230
1
0
CIRCLE
5
123
100
AcDbEntity
8
0
100
AcDbCircle
10
121.70215337835684
20
-314.3500000000007
30
0
40
1.7499999999999893
210
2.0330373159078647e-30
220
-9.8607613152620739e-32
230
1
0
CIRCLE
5
124
100
AcDbEntity
8
0
100
AcDbCircle
10
-163.29784662164502
20
-314.34999999999997
30
0
40
1.7500000000000071
210
2.0330373159078636e-30
220
5.7393859276279595e-45
230
1
0
LWPOLYLINE
5
125
100
AcDbEntity
8
0
100
AcDbPolyline
90
8
70
1
43
0.0
10
114.20215337835616
20
-32.999999999997158
10
114.20215337835616
20
-12.999999999997156
42
0.41421356237309503
10
109.20215337835573
20
-7.9999999999971552
10
94.202153378355746
20
-7.9999999999971578
42
0.41421356237309542
10
89.202153378356158
20
-12.999999999997165
10
89.202153378355774
20
-32.999999999997158
42
0.41421356237309503
10
94.202153378355774
20
-37.999999999997165
10
109.20215337835575
20
-37.999999999997158
42
0.41421356237309503
0
LWPOLYLINE
5
126
100
AcDbEntity
8
0
100
AcDbPolyline
90
8
70
1
43
0.0
10
-155.79784662164397
20
-12.999999999997947
10
-155.79784662164397
20
-32.999999999997947
42
0.41421356237309398
10
-150.7978466216436
20
-37.999999999997918
10
-135.79784662164357
20
-37.999999999997925
42
0.41421356237309609
10
-130.79784662164397
20
-32.999999999997911
10
-130.79784662164366
20
-12.999999999997911
42
0.41421356237309398
10
-135.79784662164366
20
-7.999999999997919
10
-150.79784662164366
20
-7.9999999999979288
42
0.41421356237309609
0
ENDSEC
0
SECTION
2
OBJECTS
0
DICTIONARY
5
C
100
AcDbDictionary
3
ACAD_GROUP
350
D
3
ACAD_MLINESTYLE
350
17
0
DICTIONARY
5
D
100
AcDbDictionary
0
DICTIONARY
5
1A
330
C
100
AcDbDictionary
0
DICTIONARY
5
17
100
AcDbDictionary
0
ENDSEC
0
EOF
